<svg width="500" height="500" viewBox="0 0 500 500" fill="none" xmlns="http://www.w3.org/2000/svg">
<path d="M41.0573 263.177C41.0573 263.177 43.4013 335.854 104.07 384.295C164.739 432.735 248.807 436.205 316.864 440.806C384.921 445.408 437.195 406.88 445.074 348.641C452.952 290.402 400.948 273.306 372.733 207.011C344.518 140.716 347.028 118.925 287.327 78.1509C227.626 37.3769 134.234 62.4139 85.2683 132.266C36.3033 202.118 41.0573 263.177 41.0573 263.177Z" fill="#C6FF00"/>
<path opacity="0.7" d="M41.0573 263.177C41.0573 263.177 43.4013 335.854 104.07 384.295C164.739 432.735 248.807 436.205 316.864 440.806C384.921 445.408 437.195 406.88 445.074 348.641C452.952 290.402 400.948 273.306 372.733 207.011C344.518 140.716 347.028 118.925 287.327 78.1509C227.626 37.3769 134.234 62.4139 85.2683 132.266C36.3033 202.118 41.0573 263.177 41.0573 263.177Z" fill="white"/>
<path d="M68.6672 380.533H59.4902" stroke="#263238" stroke-width="1.1133" stroke-miterlimit="10"/>
<path d="M440.51 380.533H83.1953" stroke="#263238" stroke-width="1.1133" stroke-miterlimit="10"/>
<path d="M306.067 418.905C322.854 418.905 336.462 415.163 336.462 410.546C336.462 405.929 322.854 402.187 306.067 402.187C289.28 402.187 275.672 405.929 275.672 410.546C275.672 415.163 289.28 418.905 306.067 418.905Z" fill="#263238"/>
<path d="M149.025 429.539C117.402 429.539 112.733 424.967 112.272 421.278C112.072 419.68 112.556 418.256 113.711 417.045C122.233 408.109 171.324 411.888 239.271 417.121C248.747 417.851 258.55 418.605 268.601 419.352C337.254 424.453 364.892 423.789 370.575 416.894C371.74 415.48 371.983 413.716 371.335 411.343C368.62 401.387 332.263 401.31 318.487 402.117C317.835 402.15 317.27 401.655 317.232 401.001C317.194 400.347 317.693 399.784 318.348 399.746C323.616 399.437 369.916 397.112 373.628 410.72C374.484 413.859 374.085 416.373 372.408 418.407C365.995 426.187 339.758 427.022 268.424 421.722C258.371 420.975 248.567 420.22 239.088 419.491C174.326 414.503 123.173 410.563 115.431 418.687C114.775 419.375 114.52 420.105 114.63 420.985C114.924 423.338 120.577 428.617 166.64 426.778C192.368 425.752 218.221 422.95 218.479 422.922C219.126 422.85 219.718 423.321 219.789 423.974C219.86 424.626 219.389 425.213 218.737 425.284C218.478 425.312 192.555 428.122 166.746 429.151C160.056 429.417 154.181 429.539 149.025 429.539Z" fill="white" stroke="#263238" stroke-width="1.1133" stroke-miterlimit="10"/>
<path d="M302.891 416.968C322.154 412.493 334.142 393.249 329.667 373.986C325.192 354.723 305.948 342.735 286.685 347.211C267.422 351.686 255.434 370.929 259.91 390.192C264.385 409.455 283.628 421.443 302.891 416.968Z" fill="white"/>
<mask id="mask0_22003_19" style="mask-type:luminance" maskUnits="userSpaceOnUse" x="258" y="346" width="73" height="72">
<path d="M302.891 416.968C322.154 412.493 334.142 393.249 329.667 373.986C325.192 354.723 305.948 342.735 286.685 347.211C267.422 351.686 255.434 370.929 259.91 390.192C264.385 409.455 283.628 421.443 302.891 416.968Z" fill="white"/>
</mask>
<g mask="url(#mask0_22003_19)">
<path d="M294.769 417.887C314.544 417.887 330.575 401.856 330.575 382.081C330.575 374.6 328.277 367.657 324.354 361.912C323.958 377.506 315.334 400.537 270.568 408.464C276.941 414.314 285.437 417.887 294.769 417.887Z" fill="#C6FF00"/>
</g>
<mask id="mask1_22003_19" style="mask-type:luminance" maskUnits="userSpaceOnUse" x="258" y="346" width="73" height="72">
<path d="M302.891 416.968C322.154 412.493 334.142 393.249 329.667 373.986C325.192 354.723 305.948 342.735 286.685 347.211C267.422 351.686 255.434 370.929 259.91 390.192C264.385 409.455 283.628 421.443 302.891 416.968Z" fill="white"/>
</mask>
<g mask="url(#mask1_22003_19)">
<path opacity="0.3" d="M294.769 417.887C314.544 417.887 330.575 401.856 330.575 382.081C330.575 374.6 328.277 367.657 324.354 361.912C323.958 377.506 315.334 400.537 270.568 408.464C276.941 414.314 285.437 417.887 294.769 417.887Z" fill="white"/>
</g>
<mask id="mask2_22003_19" style="mask-type:luminance" maskUnits="userSpaceOnUse" x="258" y="346" width="73" height="72">
<path d="M302.891 416.968C322.154 412.493 334.142 393.249 329.667 373.986C325.192 354.723 305.948 342.735 286.685 347.211C267.422 351.686 255.434 370.929 259.91 390.192C264.385 409.455 283.628 421.443 302.891 416.968Z" fill="white"/>
</mask>
<g mask="url(#mask2_22003_19)">
<path d="M312.394 396.118C301.876 385.827 289.753 382.613 289.753 382.613M312.394 396.118C313.026 396.127 313.645 396.143 314.29 396.144C319.255 391.143 322.7 386.309 325.078 382.079M312.394 396.118C297.661 395.905 286.457 393.635 278.045 390.642C278.588 368.022 286.657 352.949 290.877 346.567C292.208 346.417 293.559 346.333 294.93 346.333C296.154 346.333 297.362 346.396 298.554 346.515M325.078 382.079C308.306 364.337 291.948 366.149 291.948 366.149C291.948 366.149 308.305 364.337 325.078 382.079ZM325.078 382.079C326.003 380.434 326.77 378.884 327.402 377.45C320.466 367.672 308.451 361.038 301.959 360.017L300.457 359.664M300.457 359.664C296.115 358.981 293.411 359.564 293.411 359.564M300.457 359.664L304.73 347.699C302.735 347.134 300.674 346.727 298.554 346.515M298.554 346.515C295.792 350.981 288.654 365.26 288.654 393.589M320.485 388.832C306.217 374.93 290.485 374.198 290.485 374.198" stroke="#263238" stroke-width="1.1133" stroke-miterlimit="10" stroke-linecap="round" stroke-linejoin="round"/>
<path d="M278.046 390.642C278.589 368.022 286.658 352.948 290.878 346.567C287.511 346.946 284.285 347.789 281.266 349.034C276.7 355.689 269.505 368.895 268.916 386.63C271.507 388.027 274.54 389.394 278.046 390.642Z" stroke="#263238" stroke-width="1.1133" stroke-miterlimit="10" stroke-linecap="round" stroke-linejoin="round"/>
<path d="M281.267 349.034C268.952 354.112 260.089 365.844 259.148 379.754C261.333 381.797 264.5 384.249 268.917 386.63C269.506 368.895 276.701 355.689 281.267 349.034Z" stroke="#263238" stroke-width="1.1133" stroke-miterlimit="10" stroke-linecap="round" stroke-linejoin="round"/>
<path d="M321.739 358.375C325.225 362.293 327.861 366.978 329.369 372.147C328.93 373.627 328.298 375.418 327.403 377.451C317.106 364.545 306.949 360.686 300.459 359.664L304.732 347.699C308.117 348.659 311.296 350.101 314.194 351.949M321.739 358.375L319.022 367.613M321.739 358.375C319.538 355.901 316.998 353.737 314.194 351.949M314.194 351.949L311.139 363.359" stroke="#263238" stroke-width="1.1133" stroke-miterlimit="10" stroke-linecap="round" stroke-linejoin="round"/>
<path d="M327.401 377.451C328.297 375.418 328.928 373.627 329.367 372.147C330.299 375.341 330.808 378.715 330.808 382.21C330.808 382.734 330.791 383.253 330.769 383.771C315.644 404.956 303.979 414.104 296.733 418.04C296.136 418.07 295.535 418.086 294.93 418.086C291.162 418.086 287.531 417.502 284.119 416.425C288.8 414.275 293.025 412.031 296.808 409.728M327.401 377.451C327.412 377.465 327.423 377.477 327.434 377.491M327.401 377.451C326.769 378.885 326.806 378.865 325.881 380.51C325.935 380.567 325.023 382.023 325.077 382.08C325.023 382.022 324.122 383.88 324.068 383.822C321.69 388.051 314.513 396.149 314.629 396.149C314.513 396.149 310.751 399.559 308.693 401.278M308.693 401.278C308.721 401.275 308.747 401.274 308.775 401.271M308.693 401.278C305.292 404.119 301.354 406.961 296.808 409.728M296.808 409.728C296.894 409.712 296.984 409.702 297.069 409.685" stroke="#263238" stroke-width="1.1133" stroke-miterlimit="10" stroke-linecap="round" stroke-linejoin="round"/>
<path d="M330.769 383.771C315.644 404.957 303.979 414.104 296.734 418.042C315.194 417.128 329.977 402.262 330.769 383.771Z" stroke="#263238" stroke-width="1.1133" stroke-miterlimit="10" stroke-linecap="round" stroke-linejoin="round"/>
<path d="M266.889 404.575C271.281 410.075 277.252 414.258 284.121 416.426C288.801 414.276 293.027 412.031 296.81 409.729C288.27 411.306 274.915 407.392 266.889 404.575Z" stroke="#263238" stroke-width="1.1133" stroke-miterlimit="10" stroke-linecap="round" stroke-linejoin="round"/>
<path d="M296.81 409.729C301.356 406.962 305.294 404.12 308.695 401.279C282.911 403.916 267.001 395.934 260.244 391.39C261.533 396.272 263.827 400.743 266.888 404.576C274.915 407.392 288.27 411.306 296.81 409.729Z" stroke="#263238" stroke-width="1.1133" stroke-miterlimit="10" stroke-linecap="round" stroke-linejoin="round"/>
<path d="M312.394 396.118C313.025 396.127 313.645 396.143 314.29 396.144C312.603 397.844 310.753 399.559 308.695 401.278C282.911 403.916 267.001 395.934 260.245 391.389C259.472 388.459 259.055 385.383 259.055 382.21C259.055 381.384 259.093 380.566 259.148 379.754C261.333 381.797 265.757 386.385 278.047 390.642M312.394 396.118C312.53 396.251 312.667 396.38 312.802 396.515M312.394 396.118C297.661 395.905 286.457 393.635 278.047 390.642M278.047 390.642C278.047 390.649 278.046 390.655 278.046 390.662" stroke="#263238" stroke-width="1.1133" stroke-miterlimit="10" stroke-linecap="round" stroke-linejoin="round"/>
</g>
<path d="M302.891 416.968C322.154 412.493 334.142 393.249 329.667 373.986C325.192 354.723 305.948 342.735 286.685 347.211C267.422 351.686 255.434 370.929 259.91 390.192C264.385 409.455 283.628 421.443 302.891 416.968Z" stroke="#263238" stroke-width="1.11335" stroke-miterlimit="10" stroke-linecap="round" stroke-linejoin="round"/>
<path d="M360.731 320.884C360.731 320.884 358.283 312.927 351.142 310.071C346.179 308.086 340.466 308.605 335.325 309.5C325.744 311.166 317.383 314.976 308.299 318.232C308.299 318.232 312.175 316.804 328.088 324.556C333.949 327.412 340.652 329.627 347.354 329.477C352.739 329.357 360.987 327.824 360.731 320.884Z" fill="#C6FF00"/>
<path d="M361.593 297.509C361.593 297.509 361.547 289.185 355.536 284.387C351.358 281.053 345.739 279.9 340.558 279.271C330.904 278.099 321.799 279.33 312.162 279.824C312.162 279.824 316.286 279.576 329.281 291.595C334.067 296.022 339.844 300.079 346.304 301.872C351.494 303.312 359.834 304.227 361.593 297.509Z" fill="#C6FF00"/>
<path d="M378.044 328.42C378.044 328.42 371.551 323.211 371.529 315.52C371.514 310.175 374.103 305.056 376.83 300.607C381.912 292.315 388.535 285.948 394.912 278.705C394.912 278.705 392.155 281.782 393.494 299.432C393.987 305.933 393.575 312.98 390.965 319.155C388.867 324.115 384.4 331.217 378.044 328.42Z" fill="#C6FF00"/>
<path d="M401.039 341.204C401.039 341.204 400.122 332.93 405.538 327.47C409.302 323.675 414.75 321.88 419.824 320.656C429.278 318.376 438.464 318.545 448.093 317.921C448.093 317.921 443.968 318.152 432.45 331.593C428.208 336.544 422.939 341.242 416.73 343.769C411.741 345.8 403.563 347.673 401.039 341.204Z" fill="#C6FF00"/>
<path d="M399.533 311.712C399.533 311.712 391.286 310.578 387.317 303.991C384.558 299.413 384.15 293.691 384.204 288.473C384.305 278.749 386.717 269.883 388.468 260.394C388.468 260.394 387.683 264.45 397.898 278.906C401.66 284.231 404.927 290.488 405.859 297.127C406.607 302.46 406.423 310.848 399.533 311.712Z" fill="#C6FF00"/>
<path d="M423.267 296.901C423.267 296.901 429.198 302.742 436.839 301.866C442.149 301.257 446.931 298.088 451.032 294.86C458.673 288.845 464.224 281.523 470.673 274.345C470.673 274.345 467.939 277.442 450.253 278.173C443.739 278.443 436.788 279.674 430.961 282.988C426.278 285.651 419.746 290.916 423.267 296.901Z" fill="#C6FF00"/>
<path d="M416.397 291.127C416.397 291.127 424.68 291.959 430.084 286.487C433.84 282.684 435.579 277.217 436.751 272.132C438.934 262.655 438.669 253.472 439.194 243.836C439.194 243.836 439.005 247.963 425.684 259.618C420.777 263.911 416.134 269.228 413.67 275.463C411.691 280.473 409.902 288.67 416.397 291.127Z" fill="#C6FF00"/>
<path d="M386.825 371.74L372.53 336.551L356.035 295.864" stroke="#263238" stroke-width="1.1133" stroke-miterlimit="10" stroke-linecap="round" stroke-linejoin="round"/>
<path d="M390.125 365.692L404.42 316.757L419.815 286.517" stroke="#263238" stroke-width="1.1133" stroke-miterlimit="10" stroke-linecap="round" stroke-linejoin="round"/>
<path d="M395.623 346.448L409.918 338.2" stroke="#263238" stroke-width="1.1133" stroke-miterlimit="10" stroke-linecap="round" stroke-linejoin="round"/>
<path d="M404.421 316.757L397.273 300.812" stroke="#263238" stroke-width="1.1133" stroke-miterlimit="10" stroke-linecap="round" stroke-linejoin="round"/>
<path d="M413.365 300.891L430.812 293.115" stroke="#263238" stroke-width="1.1133" stroke-miterlimit="10" stroke-linecap="round" stroke-linejoin="round"/>
<path d="M375.279 343.149L381.327 318.956" stroke="#263238" stroke-width="1.1133" stroke-miterlimit="10" stroke-linecap="round" stroke-linejoin="round"/>
<path d="M367.259 324.761L353.287 317.307" stroke="#263238" stroke-width="1.1133" stroke-miterlimit="10" stroke-linecap="round" stroke-linejoin="round"/>
<path d="M394.162 389.334H382.238C378.217 389.334 374.764 386.475 374.015 382.524L369.781 360.193H406.619L402.385 382.524C401.636 386.475 398.183 389.334 394.162 389.334Z" fill="#263238" stroke="#263238" stroke-width="1.1133" stroke-miterlimit="10" stroke-linecap="round" stroke-linejoin="round"/>
<path d="M231.152 342.281C208.886 342.282 195.511 322.528 190.759 305.156L190.598 304.547C189.69 301.053 191.786 297.485 195.28 296.578C198.775 295.675 202.341 297.766 203.249 301.259L203.368 301.712C206.985 314.933 216.814 330.043 232.581 329.171C238.869 328.817 243.933 326.345 248.061 321.616C256.713 311.704 260.58 290.126 259.717 279.249C259.488 276.37 261.637 273.852 264.515 273.624C267.414 273.396 269.912 275.544 270.14 278.421C271.102 290.526 269.823 316.562 257.908 330.211C251.435 337.626 243.162 341.666 233.316 342.221C232.585 342.261 231.863 342.281 231.152 342.281Z" fill="white"/>
<mask id="mask3_22003_19" style="mask-type:luminance" maskUnits="userSpaceOnUse" x="190" y="273" width="81" height="70">
<path d="M231.152 342.281C208.886 342.282 195.511 322.528 190.759 305.156L190.598 304.547C189.69 301.053 191.786 297.485 195.28 296.578C198.775 295.675 202.341 297.766 203.249 301.259L203.368 301.712C206.985 314.933 216.814 330.043 232.581 329.171C238.869 328.817 243.933 326.345 248.061 321.616C256.713 311.704 260.58 290.126 259.717 279.249C259.488 276.37 261.637 273.852 264.515 273.624C267.414 273.396 269.912 275.544 270.14 278.421C271.102 290.526 269.823 316.562 257.908 330.211C251.435 337.626 243.162 341.666 233.316 342.221C232.585 342.261 231.863 342.281 231.152 342.281Z" fill="white"/>
</mask>
<g mask="url(#mask3_22003_19)">
<path d="M264.514 273.623C261.636 273.851 259.487 276.37 259.716 279.248C260.137 284.556 259.429 292.413 257.591 300.218C259.85 300.108 262.444 300.359 265.357 301.23C264.934 306.571 263.254 314.42 257.725 322.098C248.014 335.586 233.446 339.903 222.116 338.284C217.051 337.56 211.235 334.896 206.348 332.171C212.81 338.221 221.066 342.281 231.153 342.281C231.864 342.281 232.586 342.26 233.315 342.22C243.161 341.665 251.435 337.625 257.907 330.21C269.822 316.561 271.101 290.525 270.139 278.42C269.911 275.543 267.413 273.394 264.514 273.623Z" fill="#C6FF00"/>
</g>
<mask id="mask4_22003_19" style="mask-type:luminance" maskUnits="userSpaceOnUse" x="190" y="273" width="81" height="70">
<path d="M231.152 342.281C208.886 342.282 195.511 322.528 190.759 305.156L190.598 304.547C189.69 301.053 191.786 297.485 195.28 296.578C198.775 295.675 202.341 297.766 203.249 301.259L203.368 301.712C206.985 314.933 216.814 330.043 232.581 329.171C238.869 328.817 243.933 326.345 248.061 321.616C256.713 311.704 260.58 290.126 259.717 279.249C259.488 276.37 261.637 273.852 264.515 273.624C267.414 273.396 269.912 275.544 270.14 278.421C271.102 290.526 269.823 316.562 257.908 330.211C251.435 337.626 243.162 341.666 233.316 342.221C232.585 342.261 231.863 342.281 231.152 342.281Z" fill="white"/>
</mask>
<g mask="url(#mask4_22003_19)">
<path opacity="0.5" d="M264.514 273.623C261.636 273.851 259.487 276.37 259.716 279.248C260.137 284.556 259.429 292.413 257.591 300.218C259.85 300.108 262.444 300.359 265.357 301.23C264.934 306.571 263.254 314.42 257.725 322.098C248.014 335.586 233.446 339.903 222.116 338.284C217.051 337.56 211.235 334.896 206.348 332.171C212.81 338.221 221.066 342.281 231.153 342.281C231.864 342.281 232.586 342.26 233.315 342.22C243.161 341.665 251.435 337.625 257.907 330.21C269.822 316.561 271.101 290.525 270.139 278.42C269.911 275.543 267.413 273.394 264.514 273.623Z" fill="white"/>
</g>
<path d="M231.152 342.281C208.886 342.282 195.511 322.528 190.759 305.156L190.598 304.547C189.69 301.053 191.786 297.485 195.28 296.578C198.775 295.675 202.341 297.766 203.249 301.259L203.368 301.712C206.985 314.933 216.814 330.043 232.581 329.171C238.869 328.817 243.933 326.345 248.061 321.616C256.713 311.704 260.58 290.126 259.717 279.249C259.488 276.37 261.637 273.852 264.515 273.624C267.414 273.396 269.912 275.544 270.14 278.421C271.102 290.526 269.823 316.562 257.908 330.211C251.435 337.626 243.162 341.666 233.316 342.221C232.585 342.261 231.863 342.281 231.152 342.281Z" stroke="#263238" stroke-width="1.1133" stroke-miterlimit="10" stroke-linecap="round" stroke-linejoin="round"/>
<path d="M218.311 328.747C218.836 326.298 212.975 330.132 208.066 333.699C209.883 335.225 211.832 336.591 213.909 337.765C215.662 334.921 217.804 331.114 218.311 328.747Z" fill="#C6FF00" stroke="#263238" stroke-width="1.1133" stroke-miterlimit="10" stroke-linecap="round" stroke-linejoin="round"/>
<path d="M231.151 342.281C231.862 342.281 232.584 342.26 233.313 342.22C235.496 342.097 237.598 341.793 239.624 341.328C236.866 337.726 233.07 332.974 231.973 332.609C230.725 332.193 228.315 338.324 226.98 342.042C228.335 342.198 229.724 342.281 231.151 342.281Z" fill="#C6FF00" stroke="#263238" stroke-width="1.1133" stroke-miterlimit="10" stroke-linecap="round" stroke-linejoin="round"/>
<path d="M203.366 301.712L203.247 301.259C202.339 297.766 198.773 295.675 195.278 296.578C191.785 297.485 189.688 301.054 190.596 304.547L190.757 305.156C192.335 310.923 194.869 316.95 198.357 322.432L210.267 316.761C207.063 312.14 204.755 306.788 203.366 301.712Z" fill="#C6FF00" stroke="#263238" stroke-width="1.1133" stroke-miterlimit="10" stroke-linecap="round" stroke-linejoin="round"/>
<path d="M257.907 330.21C258.817 329.167 259.658 328.045 260.448 326.869C256.673 325.578 251.009 323.803 248.907 323.994C246.415 324.221 249.796 332.219 251.542 336.004C253.823 334.382 255.948 332.453 257.907 330.21Z" fill="#C6FF00" stroke="#263238" stroke-width="1.1133" stroke-miterlimit="10" stroke-linecap="round" stroke-linejoin="round"/>
<path d="M258.116 308.844C257.72 309.637 262.61 313.204 265.91 315.492C266.96 312.403 267.789 309.191 268.431 305.97C264.428 306.766 258.507 308.063 258.116 308.844Z" fill="#C6FF00" stroke="#263238" stroke-width="1.1133" stroke-miterlimit="10" stroke-linecap="round" stroke-linejoin="round"/>
<path d="M270.051 294.051C270.273 291.201 270.377 288.479 270.39 285.976C266.952 287.874 262.869 290.49 262.869 292.21C262.869 293.873 266.69 294.139 270.051 294.051Z" fill="#C6FF00" stroke="#263238" stroke-width="1.1133" stroke-miterlimit="10" stroke-linecap="round" stroke-linejoin="round"/>
<path d="M216.208 216.681C216.208 216.681 206.503 244.801 211.729 266.699C216.955 288.597 236.116 295.814 236.116 295.814C236.116 295.814 221.932 300.791 225.167 308.505C228.402 316.219 240.595 311.242 244.577 308.754C248.558 306.266 253.535 298.8 254.282 293.823C255.028 288.846 254.78 286.109 254.78 286.109C254.78 286.109 270.955 284.367 281.904 275.409C281.904 275.409 291.609 283.123 298.577 281.63C305.545 280.137 315.498 267.695 314.503 256.497C313.508 245.299 307.038 245.299 303.056 247.041C299.074 248.783 297.581 250.525 297.581 250.525C297.581 250.525 303.305 243.557 297.581 233.852C291.858 224.147 281.655 223.4 281.655 223.4C281.655 223.4 278.669 207.474 269.71 201.502C260.752 195.529 228.899 189.308 216.208 216.681Z" fill="white"/>
<mask id="mask5_22003_19" style="mask-type:luminance" maskUnits="userSpaceOnUse" x="210" y="196" width="105" height="117">
<path d="M216.208 216.681C216.208 216.681 206.503 244.801 211.729 266.699C216.955 288.597 236.116 295.814 236.116 295.814C236.116 295.814 221.932 300.791 225.167 308.505C228.402 316.219 240.595 311.242 244.577 308.754C248.558 306.266 253.535 298.8 254.282 293.823C255.028 288.846 254.78 286.109 254.78 286.109C254.78 286.109 270.955 284.367 281.904 275.409C281.904 275.409 291.609 283.123 298.577 281.63C305.545 280.137 315.498 267.695 314.503 256.497C313.508 245.299 307.038 245.299 303.056 247.041C299.074 248.783 297.581 250.525 297.581 250.525C297.581 250.525 303.305 243.557 297.581 233.852C291.858 224.147 281.655 223.4 281.655 223.4C281.655 223.4 278.669 207.474 269.71 201.502C260.752 195.529 228.899 189.308 216.208 216.681Z" fill="white"/>
</mask>
<g mask="url(#mask5_22003_19)">
<path d="M290.144 226.354C283.093 238.096 268.79 251.6 246.286 253.574C226.483 255.311 215.382 251.411 210.266 248.703C210.956 231.924 216.21 216.682 216.21 216.682C228.901 189.309 260.753 195.53 269.712 201.502C278.67 207.474 281.657 223.4 281.657 223.4C281.657 223.4 285.712 223.702 290.144 226.354ZM303.056 247.04C299.074 248.782 297.581 250.524 297.581 250.524C297.581 250.524 299.31 248.403 299.914 244.884C286.463 251.578 287.513 265.902 285.839 265.902C283.784 265.902 282.757 258.71 282.757 258.71C282.757 258.71 280.189 268.984 264.778 276.175C249.367 283.366 231.902 277.716 231.902 277.716C231.902 277.716 235.498 285.935 226.251 284.908C223.127 284.561 220.78 283.506 219.022 282.266C226.49 292.179 236.116 295.813 236.116 295.813C236.116 295.813 221.932 300.79 225.167 308.504C228.402 316.218 240.595 311.241 244.577 308.753C248.558 306.265 253.535 298.799 254.282 293.822C255.028 288.845 254.78 286.108 254.78 286.108C254.78 286.108 270.955 284.366 281.904 275.408C281.904 275.408 291.609 283.122 298.577 281.629C305.545 280.136 315.498 267.694 314.503 256.496C313.508 245.298 307.038 245.298 303.056 247.04Z" fill="#C6FF00"/>
</g>
<mask id="mask6_22003_19" style="mask-type:luminance" maskUnits="userSpaceOnUse" x="210" y="196" width="105" height="117">
<path d="M216.208 216.681C216.208 216.681 206.503 244.801 211.729 266.699C216.955 288.597 236.116 295.814 236.116 295.814C236.116 295.814 221.932 300.791 225.167 308.505C228.402 316.219 240.595 311.242 244.577 308.754C248.558 306.266 253.535 298.8 254.282 293.823C255.028 288.846 254.78 286.109 254.78 286.109C254.78 286.109 270.955 284.367 281.904 275.409C281.904 275.409 291.609 283.123 298.577 281.63C305.545 280.137 315.498 267.695 314.503 256.497C313.508 245.299 307.038 245.299 303.056 247.041C299.074 248.783 297.581 250.525 297.581 250.525C297.581 250.525 303.305 243.557 297.581 233.852C291.858 224.147 281.655 223.4 281.655 223.4C281.655 223.4 278.669 207.474 269.71 201.502C260.752 195.529 228.899 189.308 216.208 216.681Z" fill="white"/>
</mask>
<g mask="url(#mask6_22003_19)">
<path opacity="0.5" d="M290.144 226.354C283.093 238.096 268.79 251.6 246.286 253.574C226.483 255.311 215.382 251.411 210.266 248.703C210.956 231.924 216.21 216.682 216.21 216.682C228.901 189.309 260.753 195.53 269.712 201.502C278.67 207.474 281.657 223.4 281.657 223.4C281.657 223.4 285.712 223.702 290.144 226.354ZM303.056 247.04C299.074 248.782 297.581 250.524 297.581 250.524C297.581 250.524 299.31 248.403 299.914 244.884C286.463 251.578 287.513 265.902 285.839 265.902C283.784 265.902 282.757 258.71 282.757 258.71C282.757 258.71 280.189 268.984 264.778 276.175C249.367 283.366 231.902 277.716 231.902 277.716C231.902 277.716 235.498 285.935 226.251 284.908C223.127 284.561 220.78 283.506 219.022 282.266C226.49 292.179 236.116 295.813 236.116 295.813C236.116 295.813 221.932 300.79 225.167 308.504C228.402 316.218 240.595 311.241 244.577 308.753C248.558 306.265 253.535 298.799 254.282 293.822C255.028 288.845 254.78 286.108 254.78 286.108C254.78 286.108 270.955 284.366 281.904 275.408C281.904 275.408 291.609 283.122 298.577 281.629C305.545 280.136 315.498 267.694 314.503 256.496C313.508 245.298 307.038 245.298 303.056 247.04Z" fill="white"/>
</g>
<mask id="mask7_22003_19" style="mask-type:luminance" maskUnits="userSpaceOnUse" x="210" y="196" width="105" height="117">
<path d="M216.208 216.681C216.208 216.681 206.503 244.801 211.729 266.699C216.955 288.597 236.116 295.814 236.116 295.814C236.116 295.814 221.932 300.791 225.167 308.505C228.402 316.219 240.595 311.242 244.577 308.754C248.558 306.266 253.535 298.8 254.282 293.823C255.028 288.846 254.78 286.109 254.78 286.109C254.78 286.109 270.955 284.367 281.904 275.409C281.904 275.409 291.609 283.123 298.577 281.63C305.545 280.137 315.498 267.695 314.503 256.497C313.508 245.299 307.038 245.299 303.056 247.041C299.074 248.783 297.581 250.525 297.581 250.525C297.581 250.525 303.305 243.557 297.581 233.852C291.858 224.147 281.655 223.4 281.655 223.4C281.655 223.4 278.669 207.474 269.71 201.502C260.752 195.529 228.899 189.308 216.208 216.681Z" fill="white"/>
</mask>
<g mask="url(#mask7_22003_19)">
<path d="M254.779 286.109C254.779 286.109 238.214 287.457 226.629 273.198" stroke="#263238" stroke-width="1.1133" stroke-miterlimit="10" stroke-linecap="round" stroke-linejoin="round"/>
</g>
<path d="M216.208 216.681C216.208 216.681 206.503 244.801 211.729 266.699C216.955 288.597 236.116 295.814 236.116 295.814C236.116 295.814 221.932 300.791 225.167 308.505C228.402 316.219 240.595 311.242 244.577 308.754C248.558 306.266 253.535 298.8 254.282 293.823C255.028 288.846 254.78 286.109 254.78 286.109C254.78 286.109 270.955 284.367 281.904 275.409C281.904 275.409 291.609 283.123 298.577 281.63C305.545 280.137 315.498 267.695 314.503 256.497C313.508 245.299 307.038 245.299 303.056 247.041C299.074 248.783 297.581 250.525 297.581 250.525C297.581 250.525 303.305 243.557 297.581 233.852C291.858 224.147 281.655 223.4 281.655 223.4C281.655 223.4 278.669 207.474 269.71 201.502C260.752 195.529 228.899 189.308 216.208 216.681Z" stroke="#263238" stroke-width="1.1133" stroke-miterlimit="10" stroke-linecap="round" stroke-linejoin="round"/>
<path d="M297.581 250.524C297.581 250.524 292.355 254.008 289.867 264.708" stroke="#263238" stroke-width="1.1133" stroke-miterlimit="10" stroke-linecap="round" stroke-linejoin="round"/>
<path d="M307.172 255.1C306.557 256.923 304.892 258.008 303.453 257.522C302.014 257.037 301.346 255.165 301.961 253.342C302.576 251.519 304.241 250.434 305.68 250.92C307.119 251.405 307.788 253.276 307.172 255.1Z" fill="white" stroke="#263238" stroke-width="1.1133" stroke-miterlimit="10" stroke-linecap="round" stroke-linejoin="round"/>
<path d="M312.321 258.338C311.706 260.161 310.041 261.246 308.602 260.76C307.163 260.275 306.495 258.403 307.11 256.58C307.725 254.757 309.39 253.672 310.829 254.158C312.268 254.644 312.936 256.515 312.321 258.338Z" fill="white" stroke="#263238" stroke-width="1.1133" stroke-miterlimit="10" stroke-linecap="round" stroke-linejoin="round"/>
<path d="M313.418 263.187C312.971 264.511 311.762 265.299 310.717 264.946C309.672 264.593 309.187 263.234 309.633 261.91C310.08 260.586 311.289 259.798 312.334 260.151C313.38 260.504 313.865 261.863 313.418 263.187Z" fill="white" stroke="#263238" stroke-width="1.1133" stroke-miterlimit="10" stroke-linecap="round" stroke-linejoin="round"/>
<path d="M306.85 269.849C305.052 273.095 301.45 274.539 298.806 273.074C296.161 271.609 295.474 267.79 297.272 264.544C299.07 261.298 302.672 259.854 305.317 261.319C307.961 262.784 308.648 266.603 306.85 269.849Z" fill="white" stroke="#263238" stroke-width="1.1133" stroke-miterlimit="10" stroke-linecap="round" stroke-linejoin="round"/>
<path d="M236.115 295.814C236.115 295.814 240.594 298.302 246.815 296.56" stroke="#263238" stroke-width="1.1133" stroke-miterlimit="10" stroke-linecap="round" stroke-linejoin="round"/>
<path d="M225.166 308.505C225.166 308.505 226.161 304.275 232.382 301.288" stroke="#263238" stroke-width="1.1133" stroke-miterlimit="10" stroke-linecap="round" stroke-linejoin="round"/>
<path d="M231.387 312.238C231.387 312.238 233.875 306.266 238.106 303.528" stroke="#263238" stroke-width="1.1133" stroke-miterlimit="10" stroke-linecap="round" stroke-linejoin="round"/>
<path d="M133.256 243.395C131.11 241.679 130.037 239.319 130.037 236.314V212.601H68.8791C65.5881 212.601 62.9241 211.493 60.8861 209.275C58.8471 207.059 57.8281 204.447 57.8281 201.443C57.8281 199.083 58.5071 196.866 59.8671 194.791L118.449 102.733C122.811 95.938 128.642 92.54 135.938 92.54C140.23 92.54 143.806 93.793 146.667 96.296C149.527 98.801 150.959 102.519 150.959 107.455V196.938H166.517C169.02 196.938 170.951 197.708 172.311 199.245C173.669 200.784 174.349 202.625 174.349 204.771C174.349 206.917 173.669 208.76 172.311 210.297C170.951 211.836 169.02 212.604 166.517 212.604H150.853V236.317C150.853 239.321 149.815 241.681 147.741 243.398C145.665 245.115 143.27 245.973 140.552 245.973C137.832 245.97 135.401 245.112 133.256 243.395ZM130.037 196.937V114.535L78.7511 196.937H130.037Z" fill="#263238"/>
<path d="M218.126 243.878C211.759 240.982 206.592 237.119 202.622 232.29C198.652 227.462 195.396 221.579 192.858 214.64C190.318 207.703 188.548 200.585 187.547 193.289C186.544 185.993 186.045 178.018 186.045 169.362C186.045 116.645 204.033 90.2871 240.014 90.2871C275.921 90.2871 293.876 116.646 293.876 169.362C293.876 177.946 293.393 185.885 292.428 193.182C291.461 200.478 289.708 207.596 287.17 214.533C284.63 221.472 281.376 227.355 277.406 232.183C273.436 237.011 268.268 240.892 261.902 243.824C255.535 246.756 248.239 248.223 240.014 248.223C231.788 248.223 224.492 246.775 218.126 243.878ZM250.69 228.749C253.873 227.354 256.554 225.531 258.737 223.277C260.918 221.024 262.814 218.217 264.424 214.854C266.033 211.492 267.303 208.094 268.233 204.661C269.161 201.228 269.896 197.348 270.432 193.02C270.968 188.693 271.326 184.724 271.505 181.111C271.682 177.5 271.773 173.584 271.773 169.362C271.773 164.928 271.682 160.832 271.505 157.077C271.325 153.322 270.95 149.282 270.378 144.953C269.805 140.626 269.053 136.745 268.125 133.312C267.194 129.878 265.926 126.517 264.317 123.227C262.708 119.937 260.812 117.183 258.63 114.965C256.447 112.749 253.783 110.979 250.636 109.654C247.488 108.331 243.948 107.669 240.014 107.669C236.079 107.669 232.539 108.331 229.392 109.654C226.244 110.979 223.598 112.73 221.453 114.911C219.306 117.094 217.41 119.83 215.766 123.12C214.12 126.411 212.85 129.772 211.956 133.205C211.061 136.638 210.328 140.538 209.757 144.9C209.184 149.264 208.808 153.323 208.63 157.078C208.45 160.834 208.362 164.929 208.362 169.363C208.362 173.584 208.45 177.517 208.63 181.165C208.808 184.813 209.166 188.801 209.703 193.128C210.239 197.457 210.971 201.336 211.902 204.769C212.831 208.203 214.102 211.601 215.711 214.962C217.321 218.325 219.198 221.114 221.343 223.33C223.489 225.548 226.153 227.354 229.337 228.748C232.519 230.143 236.078 230.841 240.012 230.841C243.948 230.842 247.507 230.145 250.69 228.749Z" fill="#263238"/>
<path d="M386.576 243.395C384.43 241.679 383.357 239.319 383.357 236.314V212.601H322.2C318.908 212.601 316.245 211.493 314.206 209.275C312.167 207.059 311.148 204.447 311.148 201.443C311.148 199.083 311.827 196.866 313.186 194.791L371.769 102.733C376.131 95.938 381.962 92.54 389.258 92.54C393.549 92.54 397.125 93.793 399.987 96.296C402.847 98.801 404.279 102.519 404.279 107.455V196.938H419.836C422.339 196.938 424.271 197.708 425.63 199.245C426.989 200.784 427.669 202.625 427.669 204.771C427.669 206.917 426.989 208.76 425.63 210.297C424.271 211.836 422.339 212.604 419.836 212.604H404.171V236.317C404.171 239.321 403.134 241.681 401.06 243.398C398.984 245.115 396.589 245.973 393.871 245.973C391.153 245.97 388.722 245.112 386.576 243.395ZM383.357 196.937V114.535L332.07 196.937H383.357Z" fill="#263238"/>
<path d="M196.052 202.496C196.052 202.496 185.6 217.178 184.107 232.109C182.614 247.04 184.356 256.994 188.835 260.726C193.314 264.459 197.793 262.966 200.282 259.482C202.771 255.998 198.789 243.805 198.789 243.805C198.789 243.805 203.02 232.109 209.49 223.897C215.96 215.685 217.204 214.441 217.204 214.441C217.204 214.441 206.005 201.75 196.052 202.496Z" fill="white"/>
<mask id="mask8_22003_19" style="mask-type:luminance" maskUnits="userSpaceOnUse" x="183" y="202" width="35" height="61">
<path d="M196.052 202.496C196.052 202.496 185.6 217.178 184.107 232.109C182.614 247.04 184.356 256.994 188.835 260.726C193.314 264.459 197.793 262.966 200.282 259.482C202.771 255.998 198.789 243.805 198.789 243.805C198.789 243.805 203.02 232.109 209.49 223.897C215.96 215.685 217.204 214.441 217.204 214.441C217.204 214.441 206.005 201.75 196.052 202.496Z" fill="white"/>
</mask>
<g mask="url(#mask8_22003_19)">
<path d="M196.053 202.496C196.053 202.496 193.003 206.785 189.963 213.079C194.958 215.094 202.713 219.184 207.631 226.435C208.228 225.565 208.848 224.713 209.491 223.897C215.961 215.685 217.205 214.441 217.205 214.441C217.205 214.441 206.006 201.75 196.053 202.496Z" fill="#C6FF00"/>
</g>
<mask id="mask9_22003_19" style="mask-type:luminance" maskUnits="userSpaceOnUse" x="183" y="202" width="35" height="61">
<path d="M196.052 202.496C196.052 202.496 185.6 217.178 184.107 232.109C182.614 247.04 184.356 256.994 188.835 260.726C193.314 264.459 197.793 262.966 200.282 259.482C202.771 255.998 198.789 243.805 198.789 243.805C198.789 243.805 203.02 232.109 209.49 223.897C215.96 215.685 217.204 214.441 217.204 214.441C217.204 214.441 206.005 201.75 196.052 202.496Z" fill="white"/>
</mask>
<g mask="url(#mask9_22003_19)">
<path opacity="0.5" d="M196.053 202.496C196.053 202.496 193.003 206.785 189.963 213.079C194.958 215.094 202.713 219.184 207.631 226.435C208.228 225.565 208.848 224.713 209.491 223.897C215.961 215.685 217.205 214.441 217.205 214.441C217.205 214.441 206.006 201.75 196.053 202.496Z" fill="white"/>
</g>
<path d="M196.052 202.496C196.052 202.496 185.6 217.178 184.107 232.109C182.614 247.04 184.356 256.994 188.835 260.726C193.314 264.459 197.793 262.966 200.282 259.482C202.771 255.998 198.789 243.805 198.789 243.805C198.789 243.805 203.02 232.109 209.49 223.897C215.96 215.685 217.204 214.441 217.204 214.441C217.204 214.441 206.005 201.75 196.052 202.496Z" stroke="#263238" stroke-width="1.1133" stroke-miterlimit="10" stroke-linecap="round" stroke-linejoin="round"/>
<path d="M188.836 260.727C188.836 260.727 187.094 256.745 187.094 250.524" stroke="#263238" stroke-width="1.1133" stroke-miterlimit="10" stroke-linecap="round" stroke-linejoin="round"/>
<path d="M195.553 262.22C195.553 262.22 193.065 257.99 192.816 250.773" stroke="#263238" stroke-width="1.1133" stroke-miterlimit="10" stroke-linecap="round" stroke-linejoin="round"/>
<path d="M199.286 229.123C199.286 226.499 194.288 221.379 187.335 219.163C186.435 221.537 185.631 224.05 185.031 226.628C186.906 226.985 190.266 227.764 192.816 229.124C196.548 231.114 199.286 232.109 199.286 229.123Z" fill="#C6FF00" stroke="#263238" stroke-width="1.1133" stroke-miterlimit="10" stroke-linecap="round" stroke-linejoin="round"/>
<path d="M195.443 203.391C194.572 204.704 192.868 207.395 191.027 210.947C192.865 211.43 194.904 212.202 197.046 213.446C204.76 217.925 206.253 218.423 203.765 211.953C202.215 207.924 198.641 205.151 195.443 203.391Z" fill="#C6FF00" stroke="#263238" stroke-width="1.1133" stroke-miterlimit="10" stroke-linecap="round" stroke-linejoin="round"/>
<path d="M277.899 195.249C277.899 195.249 289.74 208.835 292.691 223.547C295.641 238.259 294.884 248.336 290.793 252.49C286.702 256.644 282.098 255.597 279.279 252.374C276.461 249.151 279.227 236.626 279.227 236.626C279.227 236.626 273.87 225.402 266.626 217.864C259.382 210.326 258.021 209.21 258.021 209.21C258.021 209.21 267.92 195.482 277.899 195.249Z" fill="white"/>
<mask id="mask10_22003_19" style="mask-type:luminance" maskUnits="userSpaceOnUse" x="258" y="195" width="37" height="61">
<path d="M277.899 195.249C277.899 195.249 289.74 208.835 292.691 223.547C295.641 238.259 294.884 248.336 290.793 252.49C286.702 256.644 282.098 255.597 279.279 252.374C276.461 249.151 279.227 236.626 279.227 236.626C279.227 236.626 273.87 225.402 266.626 217.864C259.382 210.326 258.021 209.21 258.021 209.21C258.021 209.21 267.92 195.482 277.899 195.249Z" fill="white"/>
</mask>
<g mask="url(#mask10_22003_19)">
<path d="M277.899 195.248C267.92 195.481 258.021 209.21 258.021 209.21C258.021 209.21 259.381 210.326 266.625 217.864C267.973 219.267 269.256 220.798 270.451 222.361C272.985 218.134 277.972 211.478 286.113 207.064C282.094 200.064 277.899 195.248 277.899 195.248Z" fill="#C6FF00"/>
</g>
<mask id="mask11_22003_19" style="mask-type:luminance" maskUnits="userSpaceOnUse" x="258" y="195" width="37" height="61">
<path d="M277.899 195.249C277.899 195.249 289.74 208.835 292.691 223.547C295.641 238.259 294.884 248.336 290.793 252.49C286.702 256.644 282.098 255.597 279.279 252.374C276.461 249.151 279.227 236.626 279.227 236.626C279.227 236.626 273.87 225.402 266.626 217.864C259.382 210.326 258.021 209.21 258.021 209.21C258.021 209.21 267.92 195.482 277.899 195.249Z" fill="white"/>
</mask>
<g mask="url(#mask11_22003_19)">
<path opacity="0.5" d="M277.899 195.248C267.92 195.481 258.021 209.21 258.021 209.21C258.021 209.21 259.381 210.326 266.625 217.864C267.973 219.267 269.256 220.798 270.451 222.361C272.985 218.134 277.972 211.478 286.113 207.064C282.094 200.064 277.899 195.248 277.899 195.248Z" fill="white"/>
</g>
<path d="M277.899 195.249C277.899 195.249 289.74 208.835 292.691 223.547C295.641 238.259 294.884 248.336 290.793 252.49C286.702 256.644 282.098 255.597 279.279 252.374C276.461 249.151 279.227 236.626 279.227 236.626C279.227 236.626 273.87 225.402 266.626 217.864C259.382 210.326 258.021 209.21 258.021 209.21C258.021 209.21 267.92 195.482 277.899 195.249Z" stroke="#263238" stroke-width="1.1133" stroke-miterlimit="10" stroke-linecap="round" stroke-linejoin="round"/>
<path d="M290.793 252.49C290.793 252.49 292.136 248.357 291.526 242.166" stroke="#263238" stroke-width="1.1133" stroke-miterlimit="10" stroke-linecap="round" stroke-linejoin="round"/>
<path d="M284.252 254.635C284.252 254.635 286.314 250.181 285.853 242.975" stroke="#263238" stroke-width="1.1133" stroke-miterlimit="10" stroke-linecap="round" stroke-linejoin="round"/>
<path d="M277.29 222.064C277.033 219.452 281.504 213.867 288.206 210.979C289.335 213.253 290.382 215.675 291.231 218.182C289.4 218.722 286.133 219.826 283.729 221.429C280.209 223.777 277.583 225.036 277.29 222.064Z" fill="#C6FF00" stroke="#263238" stroke-width="1.1133" stroke-miterlimit="10" stroke-linecap="round" stroke-linejoin="round"/>
<path d="M278.591 196.079C279.586 197.301 281.547 199.811 283.726 203.166C281.944 203.827 279.991 204.795 277.981 206.243C270.743 211.457 269.306 212.099 271.148 205.416C272.296 201.255 275.581 198.145 278.591 196.079Z" fill="#C6FF00" stroke="#263238" stroke-width="1.1133" stroke-miterlimit="10" stroke-linecap="round" stroke-linejoin="round"/>
<path d="M195.071 189.797C195.071 189.797 191.992 200.191 193.146 204.425C194.301 208.659 199.69 204.81 205.079 209.429C210.468 214.048 215.464 222.358 235.866 223.897C256.268 225.437 268.595 214.433 272.83 208.274C277.064 202.115 276.679 194.801 283.993 194.416C291.307 194.031 285.148 179.788 282.838 177.478C282.838 177.478 297.081 156.306 297.081 150.917C297.081 145.528 283.608 146.683 267.055 151.687C267.055 151.687 254.737 145.143 232.41 148.992C210.083 152.841 203.539 159.386 203.539 159.386C203.539 159.386 175.823 162.85 173.898 166.315C171.974 169.779 177.748 184.407 195.071 189.797Z" fill="white"/>
<mask id="mask12_22003_19" style="mask-type:luminance" maskUnits="userSpaceOnUse" x="173" y="147" width="125" height="78">
<path d="M195.071 189.797C195.071 189.797 191.992 200.191 193.146 204.425C194.301 208.659 199.69 204.81 205.079 209.429C210.468 214.048 215.464 222.358 235.866 223.897C256.268 225.437 268.595 214.433 272.83 208.274C277.064 202.115 276.679 194.801 283.993 194.416C291.307 194.031 285.148 179.788 282.838 177.478C282.838 177.478 297.081 156.306 297.081 150.917C297.081 145.528 283.608 146.683 267.055 151.687C267.055 151.687 254.737 145.143 232.41 148.992C210.083 152.841 203.539 159.386 203.539 159.386C203.539 159.386 175.823 162.85 173.898 166.315C171.974 169.779 177.748 184.407 195.071 189.797Z" fill="white"/>
</mask>
<g mask="url(#mask12_22003_19)">
<path d="M283.993 194.416C291.307 194.031 285.148 179.788 282.838 177.478C282.838 177.478 285.547 173.451 288.601 168.464C280.324 164.14 272.204 161.74 270.043 164.171C265.401 169.394 267.929 179.393 270.043 189.118C272.157 198.843 263.7 203.072 257.781 211.528C251.861 219.985 243.404 210.682 243.404 210.682C240.444 222.944 227.759 214.91 227.759 214.91C218.034 211.95 201.543 202.225 204.926 195.459C208.309 188.694 209.154 182.351 203.235 176.854C197.315 171.357 173.705 166.799 173.705 166.799C172.469 170.965 178.455 184.626 195.069 189.795C195.069 189.795 191.989 200.188 193.144 204.423C194.299 208.657 199.688 204.808 205.077 209.427C210.466 214.046 215.462 222.356 235.864 223.895C256.266 225.435 268.593 214.431 272.828 208.272C277.064 202.115 276.679 194.801 283.993 194.416Z" fill="#C6FF00"/>
</g>
<mask id="mask13_22003_19" style="mask-type:luminance" maskUnits="userSpaceOnUse" x="173" y="147" width="125" height="78">
<path d="M195.071 189.797C195.071 189.797 191.992 200.191 193.146 204.425C194.301 208.659 199.69 204.81 205.079 209.429C210.468 214.048 215.464 222.358 235.866 223.897C256.268 225.437 268.595 214.433 272.83 208.274C277.064 202.115 276.679 194.801 283.993 194.416C291.307 194.031 285.148 179.788 282.838 177.478C282.838 177.478 297.081 156.306 297.081 150.917C297.081 145.528 283.608 146.683 267.055 151.687C267.055 151.687 254.737 145.143 232.41 148.992C210.083 152.841 203.539 159.386 203.539 159.386C203.539 159.386 175.823 162.85 173.898 166.315C171.974 169.779 177.748 184.407 195.071 189.797Z" fill="white"/>
</mask>
<g mask="url(#mask13_22003_19)">
<path opacity="0.5" d="M283.993 194.416C291.307 194.031 285.148 179.788 282.838 177.478C282.838 177.478 285.547 173.451 288.601 168.464C280.324 164.14 272.204 161.74 270.043 164.171C265.401 169.394 267.929 179.393 270.043 189.118C272.157 198.843 263.7 203.072 257.781 211.528C251.861 219.985 243.404 210.682 243.404 210.682C240.444 222.944 227.759 214.91 227.759 214.91C218.034 211.95 201.543 202.225 204.926 195.459C208.309 188.694 209.154 182.351 203.235 176.854C197.315 171.357 173.705 166.799 173.705 166.799C172.469 170.965 178.455 184.626 195.069 189.795C195.069 189.795 191.989 200.188 193.144 204.423C194.299 208.657 199.688 204.808 205.077 209.427C210.466 214.046 215.462 222.356 235.864 223.895C256.266 225.435 268.593 214.431 272.828 208.272C277.064 202.115 276.679 194.801 283.993 194.416Z" fill="white"/>
</g>
<mask id="mask14_22003_19" style="mask-type:luminance" maskUnits="userSpaceOnUse" x="173" y="147" width="125" height="78">
<path d="M195.071 189.797C195.071 189.797 191.992 200.191 193.146 204.425C194.301 208.659 199.69 204.81 205.079 209.429C210.468 214.048 215.464 222.358 235.866 223.897C256.268 225.437 268.595 214.433 272.83 208.274C277.064 202.115 276.679 194.801 283.993 194.416C291.307 194.031 285.148 179.788 282.838 177.478C282.838 177.478 297.081 156.306 297.081 150.917C297.081 145.528 283.608 146.683 267.055 151.687C267.055 151.687 254.737 145.143 232.41 148.992C210.083 152.841 203.539 159.386 203.539 159.386C203.539 159.386 175.823 162.85 173.898 166.315C171.974 169.779 177.748 184.407 195.071 189.797Z" fill="white"/>
</mask>
<g mask="url(#mask14_22003_19)">
<path d="M253.893 196.745C254.176 199.181 248.764 201.811 241.805 202.62C234.846 203.429 228.975 202.111 228.692 199.675C228.409 197.239 233.821 194.609 240.779 193.8C247.739 192.99 253.609 194.309 253.893 196.745Z" fill="#C6FF00"/>
</g>
<mask id="mask15_22003_19" style="mask-type:luminance" maskUnits="userSpaceOnUse" x="173" y="147" width="125" height="78">
<path d="M195.071 189.797C195.071 189.797 191.992 200.191 193.146 204.425C194.301 208.659 199.69 204.81 205.079 209.429C210.468 214.048 215.464 222.358 235.866 223.897C256.268 225.437 268.595 214.433 272.83 208.274C277.064 202.115 276.679 194.801 283.993 194.416C291.307 194.031 285.148 179.788 282.838 177.478C282.838 177.478 297.081 156.306 297.081 150.917C297.081 145.528 283.608 146.683 267.055 151.687C267.055 151.687 254.737 145.143 232.41 148.992C210.083 152.841 203.539 159.386 203.539 159.386C203.539 159.386 175.823 162.85 173.898 166.315C171.974 169.779 177.748 184.407 195.071 189.797Z" fill="white"/>
</mask>
<g mask="url(#mask15_22003_19)">
<path opacity="0.5" d="M253.893 196.745C254.176 199.181 248.764 201.811 241.805 202.62C234.846 203.429 228.975 202.111 228.692 199.675C228.409 197.239 233.821 194.609 240.779 193.8C247.739 192.99 253.609 194.309 253.893 196.745Z" fill="white"/>
</g>
<path d="M195.071 189.797C195.071 189.797 191.992 200.191 193.146 204.425C194.301 208.659 199.69 204.81 205.079 209.429C210.468 214.048 215.464 222.358 235.866 223.897C256.268 225.437 268.595 214.433 272.83 208.274C277.064 202.115 276.679 194.801 283.993 194.416C291.307 194.031 285.148 179.788 282.838 177.478C282.838 177.478 297.081 156.306 297.081 150.917C297.081 145.528 283.608 146.683 267.055 151.687C267.055 151.687 254.737 145.143 232.41 148.992C210.083 152.841 203.539 159.386 203.539 159.386C203.539 159.386 175.823 162.85 173.898 166.315C171.974 169.779 177.748 184.407 195.071 189.797Z" stroke="#263238" stroke-width="1.1133" stroke-miterlimit="10"/>
<path d="M274.688 158.948C264.734 165.667 268.218 172.386 272.697 176.118C275.432 178.397 279.83 178.077 282.845 177.483C282.843 177.482 282.842 177.479 282.84 177.478C282.84 177.478 297.083 156.306 297.083 150.917C297.083 150.917 284.642 152.23 274.688 158.948Z" fill="#C6FF00" stroke="#263238" stroke-width="1.1133" stroke-miterlimit="10"/>
<path d="M173.707 166.801C172.471 170.967 178.457 184.628 195.071 189.797C195.071 189.797 207.747 188.561 203.516 178.359C199.57 168.84 179.601 166.47 173.707 166.801Z" fill="#C6FF00" stroke="#263238" stroke-width="1.1133" stroke-miterlimit="10"/>
<path d="M232.412 148.992C231.097 149.219 229.841 149.456 228.633 149.699C230.624 159.797 233.923 176.616 236.863 176.616C239.908 176.616 242.05 158.18 243.012 147.848C239.78 147.982 236.247 148.331 232.412 148.992Z" fill="#C6FF00" stroke="#263238" stroke-width="1.1133" stroke-miterlimit="10"/>
<path d="M220.936 173.63C223.998 171.829 223.54 158.301 223.053 150.962C219.336 151.905 216.263 152.903 213.736 153.87C214.855 160.742 217.673 175.55 220.936 173.63Z" fill="#C6FF00" stroke="#263238" stroke-width="1.1133" stroke-miterlimit="10"/>
<path d="M250.549 167.409C253.685 168.507 255.437 157.258 256.429 148.596C253.73 148.152 250.537 147.829 246.868 147.787C246.772 154.904 247.162 166.224 250.549 167.409Z" fill="#C6FF00" stroke="#263238" stroke-width="1.1133" stroke-miterlimit="10"/>
<path d="M246.361 206.355C244.668 205.944 241.038 205.434 237.687 207.418C237.192 207.711 237.107 208.4 237.527 208.793L242.845 213.778C243.272 214.178 243.966 214.041 244.208 213.508L246.925 207.537C247.146 207.053 246.878 206.48 246.361 206.355Z" fill="#C6FF00" stroke="#263238" stroke-width="1.1133" stroke-miterlimit="10" stroke-linecap="round" stroke-linejoin="round"/>
<path d="M233.738 198.01C234.472 199.936 234.183 201.835 233.091 202.251C231.999 202.667 230.519 201.443 229.785 199.517C229.051 197.591 229.34 195.692 230.432 195.276C231.524 194.86 233.004 196.084 233.738 198.01Z" fill="#263238"/>
<path d="M248.221 196.632C247.841 198.658 248.464 200.475 249.612 200.69C250.76 200.905 251.999 199.437 252.379 197.411C252.759 195.385 252.136 193.568 250.987 193.353C249.839 193.138 248.601 194.606 248.221 196.632Z" fill="#263238"/>
<path d="M244.208 213.508C244.208 213.508 237.111 223.151 230.641 213.445" stroke="#263238" stroke-width="1.1133" stroke-miterlimit="10" stroke-linecap="round" stroke-linejoin="round"/>
<path d="M242.846 213.778C242.846 213.778 247.564 218.672 252.541 215.934C257.518 213.197 254.532 208.966 254.532 208.966" stroke="#263238" stroke-width="1.1133" stroke-miterlimit="10" stroke-linecap="round" stroke-linejoin="round"/>
<path d="M221.186 190.303C221.186 190.303 222.928 184.082 231.14 185.575" stroke="#263238" stroke-width="3.3399" stroke-miterlimit="10" stroke-linecap="round" stroke-linejoin="round"/>
<path d="M246.07 184.58C246.07 184.58 252.291 180.847 258.015 186.82" stroke="#263238" stroke-width="3.3399" stroke-miterlimit="10" stroke-linecap="round" stroke-linejoin="round"/>
<path d="M216.457 206.976L222.429 208.469" stroke="#263238" stroke-width="1.1133" stroke-miterlimit="10" stroke-linecap="round"/>
<path d="M221.683 210.708L216.457 211.704" stroke="#263238" stroke-width="1.1133" stroke-miterlimit="10" stroke-linecap="round"/>
<path d="M222.678 213.446L218.945 215.436" stroke="#263238" stroke-width="1.1133" stroke-miterlimit="10" stroke-linecap="round"/>
<path d="M260.504 204.238L265.729 202.994" stroke="#263238" stroke-width="1.1133" stroke-miterlimit="10" stroke-linecap="round"/>
<path d="M261.498 206.727H264.982" stroke="#263238" stroke-width="1.1133" stroke-miterlimit="10" stroke-linecap="round"/>
<path d="M262.246 209.215L266.974 210.46" stroke="#263238" stroke-width="1.1133" stroke-miterlimit="10" stroke-linecap="round"/>
</svg>
